<?xml version="1.0" standalone="no"?>
<!DOCTYPE svg PUBLIC "-//W3C//DTD SVG 20010904//EN"
 "http://www.w3.org/TR/2001/REC-SVG-20010904/DTD/svg10.dtd">
<svg version="1.0" xmlns="http://www.w3.org/2000/svg"
 width="450.000000pt" height="297.000000pt" viewBox="0 0 450.000000 297.000000"
 preserveAspectRatio="xMidYMid meet">
<metadata>
Created by potrace 1.16, written by Peter Selinger 2001-2019
</metadata>
<g transform="translate(0.000000,297.000000) scale(0.100000,-0.100000)"
fill="#000000" stroke="none">
<path d="M2414 2781 c-16 -10 -70 -65 -120 -121 -49 -57 -113 -129 -141 -161
-29 -33 -53 -63 -53 -67 0 -5 9 -17 20 -27 27 -24 25 -39 -6 -54 -30 -13 -17
-22 -159 104 -49 44 -91 83 -93 88 -6 12 -21 8 -62 -18 -38 -24 -40 -24 -40
-5 0 11 -3 20 -7 20 -18 0 -381 -122 -412 -137 l-33 -18 6 -95 c3 -52 6 -98 6
-102 0 -4 13 -3 29 2 33 9 41 5 41 -20 0 -14 -12 -18 -62 -22 -36 -3 -88 -17
-122 -32 -32 -14 -59 -26 -61 -26 -1 0 0 24 3 53 5 64 -26 152 -71 203 -128
147 -360 179 -627 87 -130 -45 -275 -127 -326 -184 l-21 -24 94 -157 93 -157
36 15 c20 8 37 14 38 12 2 -2 20 -43 41 -93 21 -49 50 -117 65 -150 15 -33 64
-145 110 -250 46 -104 84 -191 85 -192 1 -2 66 18 144 43 138 44 211 78 211
99 0 6 -12 53 -25 104 -30 114 -31 125 -5 86 23 -35 51 -58 105 -87 82 -45
242 -22 312 44 28 26 34 21 40 -37 3 -25 7 -45 8 -45 38 0 275 45 300 57 l35
17 0 88 c0 48 2 88 5 88 3 0 117 -56 253 -124 245 -123 248 -124 277 -108 17
8 33 19 36 24 3 5 5 59 5 120 -1 90 2 111 14 115 8 2 44 15 79 29 35 14 65 23
67 21 2 -2 0 -28 -6 -57 -6 -30 -7 -57 -3 -61 5 -3 73 -17 152 -29 137 -21
146 -22 173 -5 16 9 31 15 32 13 2 -1 13 -22 25 -45 19 -39 24 -42 51 -36 27
5 30 3 30 -20 0 -14 6 -27 13 -30 6 -2 85 -17 175 -32 144 -25 165 -27 190
-14 37 19 41 26 35 70 -5 35 -4 38 23 44 16 4 40 11 53 16 l24 10 -7 -64 -6
-64 92 -12 c143 -19 137 -16 140 -69 l3 -46 117 -38 118 -39 37 20 38 19 157
473 157 474 -162 41 c-145 36 -165 39 -189 27 -24 -12 -28 -11 -28 1 0 8 -5
18 -10 21 -13 8 -122 34 -273 65 -102 22 -111 22 -143 7 l-34 -17 0 -98 0 -99
-50 -6 c-28 -3 -73 -18 -102 -32 -28 -14 -52 -24 -53 -23 -2 3 -7 35 -41 248
-9 58 -21 108 -27 112 -6 3 -60 6 -121 6 -97 0 -117 -3 -158 -24 -41 -21 -62
-24 -149 -24 -86 0 -107 -3 -135 -21 -22 -14 -34 -29 -35 -45 -2 -37 -3 -42
-12 -50 -4 -5 -11 -3 -15 3 -12 19 -122 73 -151 73 -14 0 -32 4 -39 9 -16 9 7
25 126 86 l72 38 -17 27 c-78 120 -139 210 -143 210 -3 0 -19 -8 -36 -19z m61
-133 c17 -23 34 -47 38 -55 6 -9 -25 -29 -112 -72 -154 -78 -161 -67 -48 69
45 55 84 99 87 99 3 0 19 -18 35 -41z m-785 -323 c3 -138 4 -138 95 -9 44 62
85 114 90 114 6 0 46 -35 89 -79 59 -59 75 -81 65 -87 -19 -12 -222 -234 -218
-238 2 -1 52 -22 111 -45 87 -35 111 -49 127 -75 37 -58 121 -112 194 -124
l42 -7 5 -69 c3 -37 2 -72 -1 -77 -3 -6 -128 51 -278 126 -149 74 -275 135
-279 135 -4 0 -6 -65 -4 -144 l2 -144 -32 -5 c-18 -3 -51 -9 -74 -12 l-41 -6
-6 61 c-4 50 -1 70 16 108 32 68 31 190 -2 252 -13 25 -29 52 -36 60 -7 8 -16
47 -19 85 -4 39 -9 94 -13 123 l-6 54 -33 -7 c-32 -6 -34 -4 -34 23 0 28 3 30
113 64 131 40 125 44 127 -77z m1490 108 c0 -5 11 -83 26 -175 l26 -167 -26
-34 c-37 -48 -56 -111 -56 -184 0 -98 43 -179 121 -229 40 -25 52 -54 22 -54
-10 0 -53 5 -95 12 -89 13 -77 -9 -108 202 -11 77 -22 141 -24 143 -2 2 -18
-35 -35 -82 -18 -47 -35 -85 -37 -85 -3 0 -29 50 -58 112 l-52 112 -18 -109
c-26 -165 -25 -163 -44 -160 -9 2 -50 9 -90 16 -66 11 -73 14 -68 33 2 12 8
43 12 70 5 38 16 59 47 93 l40 44 -27 28 -26 28 27 166 c15 92 29 171 33 176
3 6 43 12 89 14 97 4 88 14 116 -136 10 -54 19 -96 21 -94 2 2 13 53 24 113
31 171 21 154 95 154 36 0 65 -3 65 -7z m-2288 -48 c60 -21 136 -87 159 -140
38 -83 20 -180 -53 -286 -35 -51 -121 -132 -151 -142 -9 -3 0 -52 31 -173 24
-93 44 -177 45 -188 2 -15 -13 -24 -67 -42 -39 -13 -72 -24 -75 -24 -4 0 -17
26 -31 58 -23 55 -245 552 -276 620 -16 35 -29 39 -58 17 -11 -8 -25 -15 -31
-15 -11 0 -115 171 -115 189 0 18 183 100 281 126 79 21 110 25 194 21 56 -3
121 -12 147 -21z m1599 -47 c26 -11 58 -32 73 -47 l26 -27 -102 -110 c-145
-155 -140 -147 -93 -140 42 7 125 51 125 66 0 20 20 9 75 -41 l56 -52 -23 -24
c-56 -60 -192 -114 -289 -114 -158 -1 -257 81 -267 222 -6 85 14 145 67 196
97 94 234 122 352 71z m1274 -9 c61 -12 113 -25 117 -28 3 -3 23 -89 43 -191
33 -163 55 -238 55 -188 0 25 72 322 79 331 6 6 135 -14 178 -28 7 -2 -34
-141 -122 -406 -74 -221 -136 -404 -139 -407 -3 -3 -32 3 -65 13 -59 17 -59
18 -65 63 -3 24 -6 130 -6 233 0 104 -4 189 -8 189 -5 0 -21 -79 -37 -175 -15
-96 -33 -175 -38 -175 -6 0 -39 5 -74 11 l-65 11 7 52 c6 37 17 61 42 91 41
48 78 125 88 182 10 61 -11 146 -48 196 -30 39 -32 46 -27 100 6 65 3 73 -25
78 -14 3 -21 13 -23 37 -4 39 -9 38 133 11z m-175 -208 c20 -9 49 -37 68 -65
27 -40 32 -58 32 -105 0 -145 -130 -275 -275 -275 -99 0 -170 54 -196 150 -28
99 43 234 149 285 81 40 152 43 222 10z m-2163 -46 c113 -48 158 -180 102
-300 -97 -207 -360 -250 -450 -73 -41 80 -18 210 49 281 35 38 99 82 137 94
49 16 121 15 162 -2z"/>
<path d="M741 2180 c-12 -6 -21 -16 -19 -23 3 -6 22 -69 44 -139 21 -71 42
-128 47 -128 4 0 32 24 61 53 58 56 74 97 62 160 -10 54 -46 80 -114 84 -31 1
-68 -2 -81 -7z"/>
<path d="M2259 2237 c-42 -29 -59 -60 -59 -115 0 -44 23 -97 46 -106 10 -4 45
32 177 181 19 22 19 22 -14 42 -46 28 -107 27 -150 -2z"/>
<path d="M3420 2092 c-80 -35 -105 -120 -55 -181 78 -92 225 -44 225 74 0 50
-15 68 -23 27 -15 -76 -137 -60 -137 19 0 22 8 34 33 49 l32 20 -30 -1 c-16 0
-37 -3 -45 -7z"/>
<path d="M1270 2022 c-78 -39 -89 -127 -23 -189 43 -42 102 -45 154 -10 46 31
69 93 49 134 l-14 28 -4 -27 c-4 -33 -36 -58 -72 -58 -31 0 -70 37 -70 66 1
22 23 54 38 54 6 0 14 5 17 10 10 16 -37 11 -75 -8z"/>
<path d="M1530 1387 c-110 -33 -188 -80 -268 -157 -121 -118 -180 -249 -189
-421 -6 -115 3 -171 43 -271 80 -195 260 -343 470 -384 269 -53 550 86 679
335 32 60 27 63 84 -38 111 -195 358 -326 582 -307 162 13 285 71 405 191 126
125 184 263 184 437 0 119 -14 177 -68 287 -143 293 -487 427 -795 308 -133
-51 -272 -179 -333 -307 l-29 -60 -77 0 c-43 0 -78 3 -78 8 0 4 23 31 52 60
l51 52 -19 22 c-107 126 -204 197 -326 239 -98 33 -269 36 -368 6z m305 -52
c99 -25 195 -78 264 -146 l63 -61 -86 -87 c-47 -47 -86 -90 -86 -94 0 -4 60
-7 134 -7 l134 0 11 -78 c20 -139 -11 -281 -88 -398 -168 -256 -502 -334 -771
-181 -30 17 -82 59 -115 93 -310 314 -163 843 268 959 70 18 199 19 272 0z
m1190 0 c105 -27 183 -72 265 -154 116 -115 170 -243 170 -404 0 -257 -168
-480 -415 -552 -82 -24 -231 -25 -310 -1 -353 104 -520 500 -349 826 75 143
227 255 399 293 47 11 185 6 240 -8z"/>
<path d="M1610 1303 c-108 -18 -214 -78 -298 -167 -96 -103 -142 -222 -142
-366 0 -100 4 -105 71 -91 30 5 90 15 134 21 l80 12 -3 49 c-8 104 45 192 144
240 56 28 71 31 122 26 67 -6 113 -26 158 -69 l32 -30 96 95 c53 53 96 100 96
105 0 16 -80 81 -145 117 -95 54 -233 77 -345 58z"/>
<path d="M1630 977 c-76 -25 -140 -121 -140 -208 1 -70 67 -163 133 -188 49
-19 135 -13 178 11 22 12 39 25 39 30 0 4 -43 8 -95 8 l-95 0 0 155 0 154 93
3 92 3 -34 18 c-41 23 -125 30 -171 14z"/>
<path d="M1690 819 l0 -82 48 6 c26 4 110 9 187 13 77 3 160 7 185 9 25 2 63
4 86 4 l41 1 -4 43 c-2 23 -6 52 -8 65 l-5 22 -265 0 -265 0 0 -81z"/>
<path d="M1960 739 c-80 -4 -173 -11 -207 -14 -58 -6 -63 -8 -63 -31 0 -24 0
-24 115 -24 70 0 115 -4 115 -10 0 -20 -72 -89 -114 -109 -58 -29 -157 -29
-211 0 -52 27 -101 74 -116 112 -12 28 -14 29 -63 24 -28 -3 -92 -13 -143 -22
l-91 -17 14 -40 c64 -183 214 -314 407 -354 210 -45 449 64 560 253 33 58 67
163 67 209 l0 34 -62 -1 c-35 -1 -128 -6 -208 -10z"/>
<path d="M2756 1295 c-138 -39 -270 -144 -333 -262 -58 -107 -84 -263 -45
-263 9 -1 72 -3 140 -7 l122 -5 0 36 c0 204 269 311 419 166 60 -59 75 -94 76
-177 l0 -71 80 -12 c44 -6 104 -16 134 -21 43 -9 55 -8 63 3 17 24 3 208 -20
273 -55 150 -178 272 -328 326 -76 27 -237 35 -308 14z"/>
<path d="M2815 975 c-156 -60 -182 -274 -46 -370 39 -27 50 -30 120 -30 68 0
83 3 120 28 59 39 95 117 89 192 -11 137 -155 228 -283 180z m-2 -234 c15 -58
114 -65 145 -10 15 26 22 29 65 29 51 0 54 -4 33 -53 -58 -138 -259 -148 -326
-17 -31 61 -28 70 29 70 39 0 50 -4 54 -19z"/>
<path d="M2360 718 c0 -44 25 -129 58 -193 35 -70 153 -185 228 -223 243 -123
538 -44 690 185 30 45 77 153 70 160 -4 4 -236 43 -259 43 -18 0 -28 -8 -37
-30 -16 -38 -79 -95 -127 -115 -56 -23 -144 -21 -198 5 -55 27 -117 95 -135
149 -13 40 -14 41 -59 41 -25 1 -88 3 -138 7 l-93 5 0 -34z"/>
</g>
</svg>
